# xmcd
#
# Track frame offsets: 
#        150
#        14593
#        30296
#        44852
#        59886
#        75689
#        89891
#        102860
#        118144
#        134256
#        148987
#        164738
#        180045
#        194172
#        207999
#
# Disc length: 2961 seconds
#
# Revision: 1
# Processed by: cddbd v1.5.2PL0 Copyright (c) Steve Scherf et al.
# Submitted via: ExactAudioCopyFreeDBPlugin 1.0
#
DISCID=eb0b8f0f
DTITLE=People's Choice - I Likes to Do It
DYEAR=2000
DGENRE=Soul
TTITLE0=I Likes To Do It
TTITLE1=Big Ladies Man
TTITLE2=The Wootie-T-Woo
TTITLE3=Cause That's the Way I Know
TTITLE4=Magic
TTITLE5=Oh How I Love It
TTITLE6=Let Me Do My Thing
TTITLE7=On a Cloudy Day
TTITLE8=Nothing But Soul Food
TTITLE9=La Papala
TTITLE10=When You're All Alone
TTITLE11=It's Still Good
TTITLE12=Grunt
TTITLE13=Magic
TTITLE14=Jo
EXTD=YEAR: 1970
EXTT0=
EXTT1=
EXTT2=
EXTT3=
EXTT4=
EXTT5=
EXTT6=
EXTT7=
EXTT8=
EXTT9=
EXTT10=
EXTT11=
EXTT12=
EXTT13=
EXTT14=
PLAYORDER=
